Coordinates
version=1
nRows=17
nColumns=24
inDegrees=yes

Units are S.I. units (second, meters, Newtons, ...)
Angles are in degrees.

endheader
time	pelvis_tilt	pelvis_list	pelvis_rotation	pelvis_tx	pelvis_ty	pelvis_tz	hip_flexion_r	hip_adduction_r	hip_rotation_r	knee_angle_r	ankle_angle_r	subtalar_angle_r	mtp_angle_r	hip_flexion_l	hip_adduction_l	hip_rotation_l	knee_angle_l	ankle_angle_l	subtalar_angle_l	mtp_angle_l	lumbar_extension	lumbar_bending	lumbar_rotation
      1.43716667	     -8.62579316	      1.61947949	     -4.28414902	      0.43290803	      1.06955934	      0.25732207	     26.05380645	     -3.21711741	     -2.50544300	    -62.99347049	      4.42947117	     -4.76508369	      4.36914610	     17.22735245	      2.54481737	     -1.86616495	    -15.22141270	     10.26360026	      5.18762835	     -1.62185325	     -7.53012085	     -5.67959710	     -0.85841902
      1.44133333	     -8.59932253	      1.55758580	     -4.18183476	      0.43778644	      1.07018510	      0.25684776	     26.38318950	     -3.15843873	     -2.66673106	    -62.33492376	      4.73404803	     -4.55505338	      4.43117395	     16.74444412	      2.55325894	     -1.75896891	    -14.86902225	     10.32820487	      5.23046383	     -1.62524258	     -7.52426034	     -5.56326043	     -1.07323917
      1.44550000	     -8.61396365	      1.47243108	     -4.07820104	      0.44267210	      1.07070247	      0.25639076	     26.74040268	     -3.06978084	     -2.83579181	    -61.63763313	      4.99984581	     -4.42595488	      4.45522359	     16.31992957	      2.52684324	     -1.67760542	    -14.55208016	     10.40346594	      5.32101647	     -1.62516358	     -7.46777505	     -5.41977307	     -1.12594891
      1.44966667	     -8.59242379	      1.41493194	     -3.97747575	      0.44752116	      1.07121543	      0.25593617	     27.06192746	     -3.01904427	     -2.99965511	    -60.93267297	      5.27955698	     -4.25360604	      4.49381615	     15.85530141	      2.53531711	     -1.57582545	    -14.22469793	     10.49645892	      5.36505156	     -1.62695764	     -7.45499083	     -5.31623557	     -1.29138018
      1.45383333	     -8.60316022	      1.33549690	     -3.87570202	      0.45237447	      1.07165306	      0.25550420	     27.40034755	     -2.93861098	     -3.16798689	    -60.18814898	      5.53178017	     -4.18925743	      4.51493780	     15.43523943	      2.51152234	     -1.49591349	    -13.91938378	     10.55953841	      5.43553176	     -1.62786290	     -7.39959609	     -5.19094757	     -1.36904028
      1.45800000	     -8.60507782	      1.26864280	     -3.77791167	      0.45721064	      1.07205866	      0.25507460	     27.72693667	     -2.87482090	     -3.33037661	    -59.42795478	      5.76253108	     -4.12346098	      4.54711904	     15.00019129	      2.50477339	     -1.38112318	    -13.59964803	     10.65321778	      5.46534313	     -1.63059936	     -7.36546507	     -5.06401098	     -1.54370713
      1.46216667	     -8.62068207	      1.20846846	     -3.69366222	      0.46203179	      1.07238091	      0.25469726	     28.06660006	     -2.80758973	     -3.47509585	    -58.65586376	      5.99723677	     -4.13134948	      4.55804315	     14.58929439	      2.49301395	     -1.31943017	    -13.29582742	     10.72647138	      5.54540107	     -1.63039605	     -7.31048180	     -4.95529646	     -1.58706654
      1.46633333	     -8.64450643	      1.14696064	     -3.60484814	      0.46684474	      1.07264800	      0.25432076	     28.40423882	     -2.74275507	     -3.62567289	    -57.85807268	      6.21197792	     -4.14420042	      4.56664780	     14.19361235	      2.48003723	     -1.24148456	    -13.00645343	     10.82205686	      5.60508302	     -1.62980121	     -7.24953977	     -4.84732367	     -1.66121775
      1.47050000	     -8.65359913	      1.07128784	     -3.50752402	      0.47163147	      1.07292120	      0.25394016	     28.70891653	     -2.66790800	     -3.78797367	    -57.02352250	      6.40182300	     -4.18854210	      4.57375651	     13.79288911	      2.45448627	     -1.14608390	    -12.73803826	     10.91551271	      5.62783850	     -1.63036905	     -7.20251839	     -4.73222270	     -1.78547900
      1.47466667	     -8.68904226	      1.03283933	     -3.43775076	      0.47640769	      1.07306683	      0.25362588	     29.05675982	     -2.61651195	     -3.90929870	    -56.20550752	      6.59376026	     -4.26920307	      4.57607658	     13.41166328	      2.45861992	     -1.07727076	    -12.44480859	     11.01505912	      5.68270929	     -1.62954120	     -7.13334714	     -4.64621006	     -1.85771658
      1.47883333	     -8.70740371	      0.97120828	     -3.34583387	      0.48115208	      1.07322164	      0.25329552	     29.36165611	     -2.55034142	     -4.05496716	    -55.34008210	      6.74628255	     -4.38916408	      4.57381635	     13.03354276	      2.44210376	     -0.98070421	    -12.19734305	     11.11572725	      5.68633698	     -1.62990973	     -7.08012515	     -4.54932601	     -1.98450694
      1.48300000	     -8.73591966	      0.93120190	     -3.27281812	      0.48588645	      1.07331742	      0.25301067	     29.68181621	     -2.49592592	     -4.17197414	    -54.47309695	      6.87537787	     -4.54629258	      4.56362932	     12.65469470	      2.44451787	     -0.87661775	    -11.92019368	     11.21878507	      5.68217506	     -1.63111663	     -7.02214220	     -4.46520797	     -2.11516955
      1.48716667	     -8.76893809	      0.89309831	     -3.20934362	      0.49060889	      1.07334882	      0.25275810	     30.00231721	     -2.43886084	     -4.27988867	    -53.59759827	      7.05108123	     -4.68467652	      4.55721752	     12.29254062	      2.44091757	     -0.82215316	    -11.66712303	     11.32054075	      5.73035348	     -1.63009559	     -6.96330797	     -4.39149455	     -2.15228965
      1.49133333	     -8.80878646	      0.83656340	     -3.13201840	      0.49530816	      1.07335124	      0.25251182	     30.30927040	     -2.36206270	     -4.39560009	    -52.67818639	      7.14562923	     -4.89669463	      4.54090086	     11.95337695	      2.41830469	     -0.74185438	    -11.44808818	     11.44021864	      5.74597090	     -1.62895917	     -6.89262991	     -4.30616231	     -2.22965684
      1.49550000	     -8.83386274	      0.79984249	     -3.06588910	      0.49999077	      1.07333532	      0.25229152	     30.60199895	     -2.30171002	     -4.49018122	    -51.75915213	      7.24928701	     -5.10967704	      4.52182024	     11.59588043	      2.41455334	     -0.67065078	    -11.21906693	     11.55556920	      5.76837199	     -1.62769562	     -6.84582978	     -4.23898419	     -2.30050176
      1.49966667	     -8.86391728	      0.77154174	     -3.00382394	      0.50465968	      1.07325013	      0.25210789	     30.89702030	     -2.24481020	     -4.57446455	    -50.83363757	      7.34239114	     -5.33531001	      4.49981683	     11.24889880	      2.41584787	     -0.60221333	    -10.99996240	     11.67979524	      5.79002919	     -1.62591192	     -6.79878239	     -4.18288913	     -2.36328902
      1.50383333	     -8.90217443	      0.75332460	     -2.94502999	      0.50930499	      1.07310832	      0.25194163	     31.19791564	     -2.19355211	     -4.64487456	    -49.89894358	      7.41826555	     -5.56941365	      4.47426703	     10.91687265	      2.42641449	     -0.53528180	    -10.79025253	     11.80714378	      5.80664111	     -1.62402607	     -6.74214636	     -4.14332295	     -2.42411925
